<?xml version="1.0" encoding="UTF-8" standalone="no"?>
<svg
   width="456"
   height="456"
   viewBox="0 0 456 456"
   version="1.1"
   xml:space="preserve"
   style="fill-rule:evenodd;clip-rule:evenodd;stroke-linejoin:round;stroke-miterlimit:2;"
   id="svg4"
   sodipodi:docname="appiconfg.svg"
   inkscape:version="1.3 (0e150ed6c4, 2023-07-21)"
   xmlns:inkscape="http://www.inkscape.org/namespaces/inkscape"
   xmlns:sodipodi="http://sodipodi.sourceforge.net/DTD/sodipodi-0.dtd"
   xmlns="http://www.w3.org/2000/svg"
   xmlns:svg="http://www.w3.org/2000/svg"><defs
   id="defs4" /><sodipodi:namedview
   id="namedview4"
   pagecolor="#ffffff"
   bordercolor="#000000"
   borderopacity="0.25"
   inkscape:showpageshadow="2"
   inkscape:pageopacity="0.0"
   inkscape:pagecheckerboard="0"
   inkscape:deskcolor="#d1d1d1"
   inkscape:zoom="2.8392818"
   inkscape:cx="200.75499"
   inkscape:cy="237.56008"
   inkscape:window-width="3840"
   inkscape:window-height="2066"
   inkscape:window-x="-11"
   inkscape:window-y="-11"
   inkscape:window-maximized="1"
   inkscape:current-layer="svg4" />&#10;    &#10;    &#10;    &#10;    &#10;<path
   style="clip-rule:evenodd;display:inline;fill:#ffffff;fill-opacity:1;fill-rule:evenodd;stroke-width:1.96882;stroke-linejoin:round;stroke-miterlimit:2"
   d="m 202.99872,339.97491 v -13.02512 h 12.5001 12.50013 v 13.02512 13.0251 l 34.5055,-0.004 34.50552,-0.004 10.37299,-36.5967 c 5.70511,-20.12817 10.62126,-36.76037 10.92472,-36.96046 0.30345,-0.20008 8.23332,-2.99219 17.62201,-6.20463 L 353,267.38936 v -46.0257 -46.02602 H 339.56806 326.13619 L 313.8884,162.44253 c -6.73626,-7.09216 -13.14381,-13.8942 -14.23897,-15.11563 l -1.99117,-2.22076 0.62151,-3.16019 c 0.34181,-1.7381 1.5697,-6.12702 2.72859,-9.75317 1.93755,-6.06262 2.08893,-6.94996 1.88172,-11.03068 -0.27615,-5.43842 -1.82904,-9.04388 -5.47517,-12.71179 -4.18404,-4.20911 -6.66938,-5.19405 -13.68633,-5.42398 -16.65444,-0.54571 -33.75555,7.41669 -45.71765,21.28648 l -3.79028,4.3947 -36.05386,0.30452 c -39.48887,0.33353 -38.20737,0.23665 -48.55395,3.67097 -19.44268,6.45361 -36.36728,24.07521 -43.21901,44.99892 -2.47677,7.56348 -3.39619,14.81109 -3.39382,26.75324 0.002,12.19977 0.59526,21.65126 2.10586,33.57157 2.40888,19.00886 4.76183,28.95524 17.9594,75.91776 4.7914,17.04987 9.19823,32.81673 9.79292,35.03756 L 133.93948,353 h 34.52961 34.52963 z m -57.01941,-16.54186 c -1.37199,-5.37286 -5.52688,-20.90532 -9.23304,-34.51657 -7.87605,-28.92555 -9.32996,-34.81745 -11.07745,-44.89103 -1.90986,-11.0096 -2.87363,-20.21472 -3.38934,-32.37231 -0.69977,-16.49726 0.4412,-24.28607 4.90126,-33.45783 6.54996,-13.46949 18.18199,-23.49716 31.80718,-27.42012 l 4.16673,-1.19965 41.01595,-0.1648 c 22.55882,-0.0906 41.01602,-0.35989 41.01602,-0.59825 0,-0.23837 1.14867,-2.19355 2.55256,-4.34487 4.75331,-7.28361 11.17492,-12.54346 21.14555,-17.31987 4.8279,-2.31283 13.79021,-5.65919 14.16159,-5.2877 0.11518,0.11524 -0.72594,4.28207 -1.86916,9.25965 -2.29318,9.98454 -3.33491,16.79831 -3.08264,20.16356 0.15888,2.11912 0.92832,3.00884 19.91466,23.02843 l 19.74938,20.82412 h 8.24563 8.24565 v 28.61777 28.61779 l -2.73442,1.01925 c -1.50388,0.56062 -8.71098,3.17106 -16.01573,5.80094 l -13.28139,4.78165 -9.87214,34.61433 -9.87215,34.61435 h -17.86243 -17.86247 v -13.28563 -13.28558 h -31.25029 -31.25026 v 13.28558 13.28563 H 166.36125 148.47387 Z M 283.60616,220.20644 c 2.64298,-1.34879 5.50383,-4.66179 6.28883,-7.2828 1.54604,-5.16185 0.0974,-11.5161 -3.36613,-14.76446 -4.51197,-4.23172 -12.54703,-4.23172 -17.059,0 -3.46347,3.24836 -4.91216,9.60261 -3.36613,14.76446 1.07653,3.59424 4.63407,6.97313 8.76722,8.32687 2.02338,0.6627 6.42054,0.13703 8.73521,-1.04407 z M 240.49905,178.72413 V 168.56451 H 209.24877 177.9985 v 10.15962 10.15958 h 31.25027 31.25028 z"
   id="path1-5"
   inkscape:label="path"
   inkscape:export-filename="logo_complementary.png"
   inkscape:export-xdpi="96"
   inkscape:export-ydpi="96"
   sodipodi:nodetypes="ccccccccssscccccsscsssssscssscsssccccssssssccscssssscccccsscccccccccccccscscssscccccccccc" /><rect
   style="fill:none;stroke-width:1.19124"
   id="rect1"
   width="456"
   x="0"
   y="0"
   height="456" /></svg>
